<svg width="903" height="827" viewBox="0 0 903 827" fill="none" xmlns="http://www.w3.org/2000/svg">
<g id="Rocket 1" clip-path="url(#clip0)">
<g id="space">
<path id="Vector" d="M158.993 253.762C175.908 207.465 202.306 165.211 236.495 129.705C265.501 99.5937 310.645 100.845 310.645 100.845L310.903 100.525C321.768 87.1266 336.347 77.2352 352.813 72.0916C369.278 66.948 386.896 66.7813 403.455 71.6124C407.76 72.8476 411.07 73.395 412.645 72.8449C441.352 62.7978 440.003 40.1207 464.771 21.8521C508.138 -10.1351 651.982 26.5056 672.265 85.3658C688.704 133.071 762.085 156.193 789.501 192.683C793.788 198.389 797.994 204.161 802.119 209.999C804.053 212.711 805.966 215.444 807.857 218.197C827.28 246.325 844.705 275.783 860.004 306.352C870.036 326.324 878.754 346.93 886.105 368.036C914.696 451.619 904.918 513.891 826.084 498.507C816.751 496.681 807.644 495.047 798.76 493.605C785.896 491.506 773.48 489.781 761.513 488.43C745.399 486.597 730.067 485.396 715.52 484.828C710.628 484.631 705.827 484.499 701.115 484.432C631.444 483.466 579.766 496.578 540.396 516.934C533.722 520.375 527.397 524.017 521.422 527.857C512.296 533.691 503.582 540.146 495.342 547.176C483.94 556.961 473.424 567.736 463.92 579.373L463.398 580.013C417.349 636.339 402.195 698.694 370.163 709.673C233.237 756.614 146.637 586.454 137.756 419.999C137.307 411.612 137.06 403.248 137.013 394.908C136.985 391.18 137.003 387.463 137.068 383.755C137.208 374.081 137.635 364.47 138.349 354.975C138.615 351.345 138.925 347.733 139.277 344.142C139.665 340.268 140.087 336.418 140.574 332.592C144.058 304.545 150.151 277.861 158.993 253.762Z" fill="#19192B"/>
<path id="Vector_2" d="M167 321C223.885 321 270 274.885 270 218C270 161.115 223.885 115 167 115C110.115 115 64 161.115 64 218C64 274.885 110.115 321 167 321Z" fill="#FFCA41"/>
<path id="Vector_3" d="M747.159 214.158C734.906 218.23 721.322 222.23 706.408 226.159C629.263 246.47 525.858 262.313 415.242 270.771C304.627 279.23 200.015 279.291 120.679 270.946C82.0317 266.88 51.4639 261.033 29.8252 253.565C6.91575 245.659 -5.12205 236.133 -5.95433 225.251C-7.57507 204.051 34.2582 185.393 69.6376 173.473L70.5958 176.316C22.0106 192.685 -4.11283 209.982 -2.96263 225.022C-1.49833 244.178 43.6817 259.829 120.993 267.962C200.154 276.289 304.573 276.225 415.014 267.781C525.454 259.335 628.669 243.523 705.644 223.257C780.818 203.467 823.095 181.128 821.63 161.972C820.414 146.067 789.063 132.462 733.352 123.66L733.821 120.697C774.301 127.092 822.913 139.405 824.622 161.743C825.453 172.625 815.004 183.871 793.563 195.167C781.34 201.606 765.811 207.959 747.159 214.158Z" fill="#3F3D56"/>
<path id="Vector_4" d="M737.405 602.647C724.493 602.647 710.34 602.159 694.948 601.183C615.334 596.128 512.21 578.55 404.572 551.691C296.934 524.832 197.642 491.897 124.987 458.957C89.5942 442.91 62.4306 427.72 44.2514 413.809C25.0043 399.082 16.5854 386.245 19.2275 375.656C24.3754 355.027 69.9585 350.514 107.291 350.361L107.304 353.361C56.0361 353.571 25.7905 361.748 22.1386 376.383C17.4868 395.023 55.4252 424.124 126.226 456.224C198.721 489.092 297.831 521.963 405.299 548.781C512.766 575.597 615.7 593.144 695.139 598.189C772.717 603.117 819.882 595.252 824.533 576.611C828.395 561.134 802.935 538.336 752.844 512.413L754.223 509.749C790.62 528.585 832.868 555.6 827.444 577.338C824.802 587.926 811.339 595.302 787.429 599.26C773.8 601.516 757.059 602.647 737.405 602.647Z" fill="#3F3D56"/>
</g>
<g id="comic">
<path id="Vector_5" opacity="0.3" d="M593.606 311.557L656.199 128.748L587.467 309.368C587.128 309.797 586.895 310.301 586.788 310.837C586.682 311.374 586.705 311.928 586.856 312.454C587.006 312.98 587.28 313.463 587.655 313.862C588.029 314.261 588.493 314.565 589.008 314.748C589.524 314.932 590.076 314.99 590.618 314.918C591.16 314.846 591.678 314.646 592.127 314.334C592.576 314.021 592.945 313.607 593.202 313.124C593.459 312.641 593.597 312.104 593.605 311.557H593.606Z" fill="#FFF502"/>
</g>
<g id="star">
<path id="Vector_6" d="M291.361 341.028C287.499 343.601 283.546 337.477 287.482 335.018C291.344 332.445 295.297 338.569 291.361 341.028Z" fill="#62CCB3"/>
<path id="Vector_7" d="M693.361 253.028C689.499 255.601 685.546 249.477 689.482 247.018C693.344 244.445 697.297 250.569 693.361 253.028Z" fill="#AC3737"/>
<path id="Vector_8" d="M419.361 323.028C415.499 325.601 411.546 319.477 415.482 317.018C419.344 314.445 423.297 320.569 419.361 323.028Z" fill="#FFF741"/>
<path id="Vector_9" d="M291.361 563.028C287.499 565.601 283.546 559.477 287.482 557.018C291.344 554.445 295.297 560.569 291.361 563.028Z" fill="#64AFDA"/>
<path id="Vector_10" d="M488.361 62.0283C484.499 64.6015 480.546 58.477 484.482 56.0181C488.344 53.445 492.297 59.5695 488.361 62.0283Z" fill="#3A62EF"/>
<path id="Vector_11" d="M298.361 180.028C294.499 182.601 290.546 176.477 294.482 174.018C298.344 171.445 302.297 177.57 298.361 180.028Z" fill="#BB3636"/>
<path id="Vector_12" d="M571.639 146.2L569.182 145.661L569.72 143.203L568.082 142.844L567.543 145.302L565.086 144.764L564.727 146.402L567.184 146.941L566.646 149.398L568.284 149.757L568.823 147.299L571.28 147.838L571.639 146.2Z" fill="#FF0E0E"/>
<path id="Vector_13" d="M171.542 350.978L169.085 350.439L169.623 347.982L167.985 347.623L167.446 350.08L164.988 349.542L164.629 351.18L167.087 351.719L166.549 354.177L168.187 354.535L168.726 352.078L171.183 352.616L171.542 350.978Z" fill="#FFF741"/>
<path id="Vector_14" d="M783.425 385.839C789.336 385.839 794.128 381.047 794.128 375.136C794.128 369.225 789.336 364.434 783.425 364.434C777.515 364.434 772.723 369.225 772.723 375.136C772.723 381.047 777.515 385.839 783.425 385.839Z" fill="#FFCA41"/>
<path id="Vector_15" d="M327.425 464.839C333.336 464.839 338.128 460.047 338.128 454.136C338.128 448.225 333.336 443.434 327.425 443.434C321.515 443.434 316.723 448.225 316.723 454.136C316.723 460.047 321.515 464.839 327.425 464.839Z" fill="#CC8DEA"/>
</g>
<g id="satelite">
<path id="Vector_16" d="M223.977 146L255.72 162.501L194.216 201.203L164.794 182.762L223.977 146Z" fill="#3F3D56"/>
<path id="Vector_17" d="M147.64 198.426L80 239.856L111.412 257.594L179.026 214.708L147.64 198.426Z" fill="#3F3D56"/>
<path id="Vector_18" d="M163.089 177.863C159.485 179.531 156.322 181.949 153.838 184.939C151.353 187.928 149.61 191.411 148.739 195.129C148.394 196.482 148.453 197.9 148.91 199.222C149.366 200.545 150.202 201.721 151.323 202.617L170.877 218.307C172.284 219.433 174.017 220.126 175.848 220.294C177.679 220.462 179.52 220.097 181.127 219.247C189.077 215.058 201.844 206.265 196.143 195.129C195.506 193.892 194.531 192.84 193.321 192.083L171.527 178.391C170.291 177.612 168.862 177.153 167.382 177.06C165.902 176.968 164.422 177.245 163.089 177.863V177.863Z" fill="#D0CDE1"/>
<path id="Vector_19" d="M222.321 227.326C232.93 213.788 233.686 197.265 224.009 190.419C214.332 183.574 197.888 188.999 187.279 202.537C176.67 216.075 175.914 232.599 185.59 239.444C195.267 246.289 211.712 240.864 222.321 227.326Z" fill="#3F3D56"/>
<path id="Vector_20" opacity="0.2" d="M200.784 245.275C204.749 248.081 214.178 242.549 222.655 232.735C223.405 231.868 224.147 230.967 224.881 230.033C225.418 229.346 225.936 228.66 226.434 227.974C234.294 217.184 237.401 206.601 233.341 203.729C229.252 200.835 219.357 206.805 210.683 217.191C210.199 217.773 209.719 218.366 209.244 218.972C207.603 221.063 206.084 223.24 204.696 225.491C199.106 234.609 197.289 242.801 200.784 245.275Z" fill="black"/>
<path id="Vector_21" d="M198.755 219.313L216.714 226.557L229.562 231.739L231.462 229.302L220.493 221.796L204.742 211.012C204.258 211.594 203.778 212.188 203.303 212.793C201.662 214.885 200.143 217.061 198.755 219.313V219.313Z" fill="#D0CDE1"/>
<path id="Vector_22" d="M233.045 235.895C235.201 235.895 236.948 234.235 236.948 232.186C236.948 230.138 235.201 228.478 233.045 228.478C230.889 228.478 229.142 230.138 229.142 232.186C229.142 234.235 230.889 235.895 233.045 235.895Z" fill="#D0CDE1"/>
<path id="Vector_23" d="M234.191 271.363C234.439 271.147 234.744 270.999 235.074 270.935C256.098 266.807 269.327 255.306 275.516 235.775C275.66 235.324 275.986 234.946 276.422 234.723C276.859 234.5 277.371 234.451 277.846 234.587C278.32 234.723 278.719 235.032 278.954 235.447C279.189 235.862 279.241 236.348 279.098 236.799C272.569 257.405 258.012 270.061 235.83 274.415C235.429 274.494 235.012 274.445 234.643 274.277C234.273 274.108 233.972 273.829 233.786 273.483C233.6 273.136 233.539 272.741 233.612 272.358C233.685 271.975 233.888 271.625 234.191 271.363H234.191Z" fill="#373481"/>
<path id="Vector_24" d="M229.016 255.9C229.265 255.684 229.57 255.536 229.899 255.472C245.664 252.377 255.583 243.753 260.223 229.109C260.367 228.658 260.693 228.28 261.129 228.058C261.566 227.835 262.078 227.786 262.552 227.922C263.027 228.058 263.425 228.367 263.66 228.781C263.895 229.196 263.947 229.682 263.805 230.133C258.803 245.92 247.65 255.616 230.656 258.952C230.255 259.031 229.838 258.982 229.468 258.814C229.099 258.645 228.798 258.366 228.612 258.02C228.426 257.673 228.364 257.278 228.437 256.895C228.51 256.512 228.714 256.162 229.016 255.9L229.016 255.9Z" fill="#373481"/>
<path id="Vector_25" d="M241.835 287.197C242.084 286.981 242.389 286.834 242.719 286.769C263.7 282.651 286.644 262.704 292.82 243.212C292.964 242.762 293.29 242.383 293.726 242.161C294.163 241.938 294.675 241.89 295.149 242.025C295.624 242.161 296.022 242.47 296.257 242.885C296.492 243.299 296.544 243.785 296.402 244.237C289.878 264.827 265.64 285.899 243.475 290.25C243.074 290.329 242.657 290.28 242.287 290.112C241.918 289.943 241.617 289.664 241.431 289.317C241.245 288.971 241.183 288.575 241.257 288.192C241.33 287.81 241.533 287.46 241.835 287.197H241.835Z" fill="#373481"/>
</g>
<g id="grey-outline">
<path id="Vector_26" d="M573.204 631.824L580.547 651.766C574.578 650.615 569.027 656.789 568.902 664.718C568.777 672.647 574.101 680.896 580.071 682.023C578.93 688.178 574.007 690.892 569.734 693.38C565.46 695.869 560.855 699.995 561.173 706.554C561.428 711.821 565.024 716.471 568.843 718.341C572.661 720.21 576.668 719.923 580.536 719.609C574.675 727.034 574.104 740.99 579.251 751.003C584.397 761.016 594.676 765.945 602.373 762.091C596.935 770.284 598.116 785.288 604.865 793.743C611.668 802.267 621.528 803.092 630.148 802.194C652.098 799.946 673.013 789.907 690.276 773.334C696.865 766.992 707.584 771.82 711.343 762.091C715.102 752.363 726.658 773.162 723.157 762.091C724.101 775.96 720.55 741.511 730.86 742.123C741.171 742.736 750.173 735.703 757.823 727.682C767.996 717.015 767.781 700.471 766.384 682.023C765.693 672.89 769.615 665.066 766.384 656.558L762.541 640.697C760.013 634.038 757.427 627.267 753.622 621.679C749.817 616.091 744.535 611.765 739.249 611.806C740.458 605.119 741.672 598.182 740.659 591.078C739.646 583.973 735.768 576.616 730.494 574.952C723.782 572.835 718.093 580.337 711.343 579.63C704.848 578.949 699.48 571.054 693.172 567.926C690.575 566.565 687.707 566.152 684.919 566.736C682.131 567.32 679.544 568.876 677.475 571.214C673.476 575.942 671.81 583.929 673.244 591.487C674.501 598.108 660.749 561.54 662.779 567.926C664.81 574.311 656.243 571.465 652.344 574.952C647.639 579.16 666.456 626.896 662.779 619.969C659.103 613.042 656.993 604.653 652.344 598.827C646.857 591.951 638.269 590.34 632.62 595.127C626.971 599.913 624.81 610.633 627.658 619.745C629.987 627.195 635.321 634.732 633.471 641.748C631.516 649.163 622.96 648.224 617.799 642.984C612.639 637.743 609.212 629.85 604.114 624.492C598.937 619.051 592.176 616.666 586.241 618.189C583.23 619.035 580.443 620.786 578.139 623.28C575.834 625.774 574.085 628.931 573.053 632.46" fill="#CCCCCC"/>
</g>
<g id="purple-dot">
<path id="Vector_27" d="M706.5 735C718.926 735 729 724.703 729 712C729 699.297 718.926 689 706.5 689C694.074 689 684 699.297 684 712C684 724.703 694.074 735 706.5 735Z" fill="#CC8DEA"/>
</g>
<g id="yellow-dot">
<path id="Vector_28" d="M626.5 733C641.135 733 653 721.583 653 707.5C653 693.417 641.135 682 626.5 682C611.864 682 600 693.417 600 707.5C600 721.583 611.864 733 626.5 733Z" fill="#FFCA41"/>
</g>
<g id="spaceship">
<path id="Vector_29" d="M698.096 569.17L680.104 577.529C677.399 578.865 674.332 579.279 671.37 578.707C668.758 578.089 666.993 576.492 666.529 574.323L662.342 554.769C661.552 551.081 664.607 546.716 669.606 544.393L679.543 539.777C684.542 537.454 689.848 537.934 692.157 540.917L704.401 556.727C705.759 558.481 705.841 560.86 704.629 563.254C703.156 565.886 700.861 567.964 698.096 569.17Z" fill="#AAC1ED"/>
<path id="Vector_30" d="M564.583 299.344C553.648 304.435 553.468 327.239 556.897 334.628L563.111 348.002L602.72 329.599L596.506 316.225C593.071 308.839 575.527 294.27 564.583 299.344Z" fill="#AAC1ED"/>
<path id="Vector_31" d="M458.142 491.36C457.445 491.36 456.759 491.191 456.141 490.869C455.523 490.547 454.991 490.081 454.592 489.51C454.192 488.939 453.937 488.28 453.846 487.589C453.756 486.898 453.833 486.195 454.073 485.54C454.266 485.005 454.564 484.514 454.95 484.095C455.335 483.676 455.799 483.338 456.316 483.1L660.869 388.062C661.385 387.822 661.943 387.686 662.511 387.662C663.079 387.638 663.647 387.726 664.181 387.921C664.715 388.116 665.205 388.415 665.624 388.799C666.043 389.184 666.382 389.648 666.621 390.163C667.104 391.205 667.154 392.396 666.759 393.474C666.365 394.552 665.559 395.43 664.519 395.915H664.518L459.965 490.953C459.394 491.22 458.772 491.359 458.142 491.36V491.36Z" fill="#AAC1ED"/>
<path id="Vector_32" d="M618.149 338.128L559.678 365.294L651.399 562.708L709.87 535.541L618.149 338.128Z" fill="#FEFDFD"/>
<path id="Vector_33" d="M398.654 89.0501C387.719 94.1412 387.539 116.945 390.968 124.334L397.182 137.708L436.791 119.305L430.577 105.931C427.141 98.5452 409.597 83.9762 398.654 89.0501Z" fill="#AAC1ED"/>
<path id="Vector_34" d="M643.669 591.864L625.676 600.224C622.972 601.559 619.904 601.973 616.943 601.401C614.33 600.783 612.565 599.186 612.101 597.018L607.915 577.464C607.124 573.775 610.179 569.411 615.179 567.088L625.115 562.471C630.114 560.149 635.42 560.628 637.729 563.611L649.974 579.422C651.332 581.175 651.414 583.554 650.202 585.949C648.728 588.581 646.434 590.659 643.669 591.864V591.864Z" fill="#AAC1ED"/>
<path id="Vector_35" d="M588.35 619.31L570.358 627.669C567.653 629.005 564.586 629.419 561.624 628.847C559.012 628.229 557.247 626.632 556.783 624.464L552.596 604.909C551.806 601.221 554.861 596.856 559.86 594.534L569.796 589.917C574.796 587.594 580.101 588.074 582.411 591.057L594.655 606.868C596.013 608.621 596.095 611 594.883 613.394C593.41 616.027 591.115 618.104 588.35 619.31V619.31Z" fill="#AAC1ED"/>
<path id="Vector_36" d="M468.011 168L409.54 195.166L594.944 594.215L653.415 567.048L468.011 168Z" fill="#FCFBFB"/>
<path id="Vector_37" d="M528.491 367.691L521.93 353.254L525.707 351.512L532.248 365.903L626.963 575.909L623.19 577.662" fill="#3F3D56"/>
<path id="Vector_38" d="M602.491 355.691L595.93 341.254L599.707 339.512L606.248 353.903L700.963 563.909L697.19 565.662" fill="#3F3D56"/>
<path id="Vector_39" d="M495.421 193.917L416.195 230.727C411.151 222.879 395.946 182.666 399.36 170.735L396.797 159.358L451.501 133.942L458.823 142.949C469.692 146.284 490.851 184.055 495.421 193.917Z" fill="#FEFDFD"/>
<path id="Vector_40" d="M453.786 134.428L397.336 160.656C395.252 161.624 393.033 161.268 392.379 159.861C392.286 159.658 392.227 159.441 392.207 159.218L389.286 128.05C389.16 126.716 390.302 125.203 392.047 124.393L429.483 106.999C431.228 106.189 433.12 106.292 434.059 107.248L455.995 129.582C457.117 130.724 456.508 132.679 454.634 133.949C454.365 134.131 454.081 134.291 453.786 134.428Z" fill="#FEFDFD"/>
<path id="Vector_41" d="M495.899 379C495.323 379.002 494.749 378.932 494.189 378.793C493.4 378.625 492.658 378.274 492.022 377.767C491.385 377.26 490.87 376.61 490.516 375.867L457.986 304.012C456.64 301.037 458.447 297.233 462.015 295.532L509.648 272.819C513.216 271.117 517.214 272.154 518.562 275.128L551.092 346.984C551.417 347.74 551.569 348.564 551.536 349.39C551.503 350.216 551.287 351.024 550.903 351.751C550.067 353.398 548.714 354.706 547.063 355.464L499.43 378.175C498.325 378.71 497.12 378.992 495.899 379Z" fill="#CCCCCC"/>
<path id="Vector_42" d="M504.974 389.862L446.503 417.028L538.224 614.441L596.695 587.275L504.974 389.862Z" fill="#FEFDFD"/>
<path id="Vector_43" d="M432.939 137.685L415.792 145.651C412.483 147.189 408.019 144.627 405.842 139.942C403.665 135.256 404.586 130.193 407.895 128.655L425.042 120.689C428.351 119.151 432.815 121.713 434.992 126.398C437.169 131.084 436.247 136.147 432.939 137.685Z" fill="#AAC1ED"/>
<path id="Vector_44" d="M452.549 350.547C441.614 355.638 441.434 378.442 444.862 385.831L451.076 399.205L490.686 380.802L484.472 367.428C481.036 360.042 463.492 345.473 452.549 350.547Z" fill="#AAC1ED"/>
<path id="Vector_45" d="M654.97 419.436C652.925 420.383 650.588 420.481 648.471 419.707C646.355 418.933 644.631 417.352 643.68 415.309L633.567 393.544C632.62 391.5 632.524 389.164 633.299 387.048C634.073 384.933 635.656 383.212 637.699 382.263C639.741 381.314 642.077 381.215 644.193 381.987C646.31 382.759 648.033 384.339 648.984 386.381L659.097 408.146C660.044 410.191 660.141 412.528 659.368 414.645C658.594 416.761 657.012 418.484 654.97 419.436V419.436Z" fill="#AAC1ED"/>
<path id="Vector_46" d="M482.97 499.436C480.925 500.383 478.588 500.481 476.471 499.707C474.355 498.933 472.631 497.352 471.68 495.309L461.567 473.544C460.62 471.5 460.524 469.164 461.299 467.049C462.073 464.933 463.656 463.212 465.699 462.263C467.741 461.314 470.077 461.215 472.193 461.987C474.309 462.759 476.033 464.339 476.984 466.381L487.097 488.146C488.044 490.191 488.141 492.528 487.368 494.645C486.594 496.761 485.012 498.484 482.97 499.436Z" fill="#AAC1ED"/>
<path id="Vector_47" d="M639.391 371.882L571.586 403.385C567.269 396.669 554.255 362.252 557.177 352.041L558.611 340.618L599.097 320.755L608.069 328.26C620.709 323.987 639.289 355.308 639.391 371.882Z" fill="#FEFDFD"/>
<path id="Vector_48" d="M607.912 369.697L590.765 377.664C587.456 379.201 582.421 375.411 579.543 369.217C576.665 363.022 577.015 356.73 580.324 355.193L597.471 347.226C600.78 345.689 605.815 349.479 608.693 355.673C611.571 361.868 611.22 368.16 607.912 369.697Z" fill="#AAC1ED"/>
<path id="Vector_49" d="M462.491 410.691L455.93 396.254L459.707 394.512L466.248 408.903L560.963 618.909L557.19 620.662" fill="#3F3D56"/>
<path id="Vector_50" d="M527.357 423.085L459.551 454.588C449.548 449.423 434.26 415.627 445.143 403.244L446.577 391.821L487.063 371.958L496.035 379.463C505.337 382.317 523.446 414.644 527.357 423.085Z" fill="#FEFDFD"/>
<path id="Vector_51" d="M494.482 417.897L477.335 425.864C474.026 427.401 469.304 424.285 466.811 418.918C464.317 413.551 464.981 407.933 468.29 406.396L485.437 398.429C488.746 396.892 493.467 400.008 495.961 405.375C498.454 410.741 497.79 416.36 494.482 417.897Z" fill="#AAC1ED"/>
<path id="Vector_52" d="M634.394 694C646.82 694 656.894 683.703 656.894 671C656.894 658.297 646.82 648 634.394 648C621.967 648 611.894 658.297 611.894 671C611.894 683.703 621.967 694 634.394 694Z" fill="#64AFDA"/>
<path id="Vector_53" d="M666.766 442.768L712.942 454.721L741.263 510.349L693.383 512.227L666.766 442.768Z" fill="#E6E6E6"/>
<path id="Vector_54" d="M560.185 362.574L585.599 388.002L650.146 527.557L638.262 537.824L560.185 362.574Z" fill="#CCCCCC"/>
<path id="Vector_55" d="M504.926 385.624L506.92 421.52L567.844 562.694L583.42 560.688L504.926 385.624Z" fill="#CCCCCC"/>
<path id="Vector_56" d="M503.263 530.637L478.394 571.339L496.727 631.008L532.44 599.061L503.263 530.637Z" fill="#E6E6E6"/>
</g>
<g>
<rect id="Rectangle 1" x="658.491" y="562.044" width="110.881" height="20" transform="rotate(65 658.491 562.044)" fill="#62CCB3"/>
<rect id="Rectangle 2" x="607.667" y="589" width="110" height="20" transform="rotate(65 607.667 589)" fill="#64AFDA"/>
<rect id="Rectangle 5" x="596.667" y="610" width="91" height="20" transform="rotate(65 596.667 610)" fill="#FFCA41"/>
<rect id="Rectangle 3" x="648.667" y="585" width="87.2811" height="20" transform="rotate(65 648.667 585)" fill="#CC8DEA"/>
<rect id="Rectangle 4" x="631.667" y="594" width="98.8745" height="20" transform="rotate(65 631.667 594)" fill="#CD7A8E"/>
</g>

<g id="red-dot">
<path id="Vector_57" d="M663.353 759C684.892 759 702.353 741.091 702.353 719C702.353 696.909 684.892 679 663.353 679C641.814 679 624.353 696.909 624.353 719C624.353 741.091 641.814 759 663.353 759Z" fill="#CD7A8E"/>
</g>
<g id="green-dot">
<path id="Vector_58" d="M706.353 711C727.892 711 745.353 693.091 745.353 671C745.353 648.909 727.892 631 706.353 631C684.814 631 667.353 648.909 667.353 671C667.353 693.091 684.814 711 706.353 711Z" fill="#62CCB3"/>
</g>
</g>
<defs>
<clipPath id="clip0">
<rect width="902.419" height="826.207" fill="white"/>
</clipPath>
</defs>
</svg>
